<?xml version="1.0" encoding="UTF-8" standalone="no"?>
<!-- Generator: Adobe Illustrator 16.0.0, SVG Export Plug-In . SVG Version: 6.00 Build 0)  -->

<svg
   xmlns:dc="http://purl.org/dc/elements/1.1/"
   xmlns:cc="http://creativecommons.org/ns#"
   xmlns:rdf="http://www.w3.org/1999/02/22-rdf-syntax-ns#"
   xmlns:svg="http://www.w3.org/2000/svg"
   xmlns="http://www.w3.org/2000/svg"
   xmlns:sodipodi="http://sodipodi.sourceforge.net/DTD/sodipodi-0.dtd"
   xmlns:inkscape="http://www.inkscape.org/namespaces/inkscape"
   version="1.1"
   id="Layer_1"
   x="0px"
   y="0px"
   width="188.84291"
   height="60.927002"
   viewBox="0 0 188.84291 60.927"
   enable-background="new 0 0 360 116.146"
   xml:space="preserve"
   inkscape:version="0.91 r"
   sodipodi:docname="thutor.svg"><metadata
     id="metadata29"><rdf:RDF><cc:Work
         rdf:about=""><dc:format>image/svg+xml</dc:format><dc:type
           rdf:resource="http://purl.org/dc/dcmitype/StillImage" /><dc:title></dc:title></cc:Work></rdf:RDF></metadata><defs
     id="defs27" /><sodipodi:namedview
     pagecolor="#ffffff"
     bordercolor="#666666"
     borderopacity="1"
     objecttolerance="10"
     gridtolerance="10"
     guidetolerance="10"
     inkscape:pageopacity="0"
     inkscape:pageshadow="2"
     inkscape:window-width="1559"
     inkscape:window-height="876"
     id="namedview25"
     showgrid="false"
     fit-margin-top="0"
     fit-margin-left="0"
     fit-margin-right="0"
     fit-margin-bottom="0"
     borderlayer="false"
     inkscape:zoom="0.81666667"
     inkscape:cx="179.99846"
     inkscape:cy="30.463988"
     inkscape:window-x="41"
     inkscape:window-y="24"
     inkscape:window-maximized="1"
     inkscape:current-layer="Layer_1" /><style
     id="style3">
	.straight &gt; g &gt; g &gt; path { fill: #005A88; }
	.straight &gt; g &gt; path { fill: #FBAE17; }
	.straight &gt; rect { fill: #FBAE17; }

	.invert &gt; g &gt; g &gt; path { fill: #FBAE17; }
	.invert &gt; g &gt; path { fill: #FFFFFF; }
	.invert &gt; rect { fill: #FFFFFF; }
</style><g
     class="straight"
     id="g5"
     transform="matrix(0.52456801,0,0,0.52456801,-5.2456801e-4,0)"><g
       id="g7"><g
         id="g9"><path
           d="m 31.225,6.941 0,13.875 16.192,0 0,16.771 -16.192,0 0,19.658 c 0,3.856 1.736,5.784 5.205,5.784 1.232,0 2.581,-0.097 4.047,-0.29 1.463,-0.192 2.62,-0.366 3.469,-0.521 l 1.156,-0.346 2.315,17.348 c -4.626,1.924 -10.218,2.888 -16.771,2.888 -6.244,0 -11.178,-1.674 -14.802,-5.029 C 12.22,73.726 10.408,69.046 10.408,63.03 l 0,-25.44 -10.407,0 0,-16.772 10.407,0 0,-13.875 20.817,-0.002 0,0 z"
           id="path11"
           inkscape:connector-curvature="0"
           style="fill:#005a88" /><path
           d="m 164.216,52.043 0,-31.228 20.815,0 0,60.138 -18.504,0 -0.924,-8.096 c -4.32,6.167 -10.486,9.249 -18.504,9.249 -6.554,0 -11.895,-2.099 -16.017,-6.302 -4.126,-4.201 -6.187,-9.889 -6.187,-17.056 l 0,-37.934 20.815,0 0,31.228 c 0,3.624 0.81,6.359 2.429,8.208 1.619,1.852 3.815,2.777 6.592,2.777 2.851,0 5.146,-0.928 6.881,-2.777 1.738,-1.848 2.604,-4.583 2.604,-8.207 z"
           id="path13"
           inkscape:connector-curvature="0"
           style="fill:#005a88" /><path
           d="m 224.35,6.941 0,13.875 16.189,0 0,16.771 -16.189,0 0,19.658 c 0,3.856 1.732,5.784 5.205,5.784 1.23,0 2.58,-0.097 4.047,-0.29 1.465,-0.192 2.619,-0.366 3.469,-0.521 l 1.158,-0.346 2.312,17.348 c -4.623,1.924 -10.218,2.888 -16.767,2.888 -6.246,0 -11.182,-1.674 -14.805,-5.029 -3.625,-3.353 -5.438,-8.033 -5.438,-14.049 l 0,-25.44 -10.404,0 0,-16.772 10.404,0 0,-13.875 20.819,-0.002 0,0 z"
           id="path15"
           inkscape:connector-curvature="0"
           style="fill:#005a88" /><path
           d="m 255.575,73.318 c -6.17,-5.854 -9.252,-13.223 -9.252,-22.087 0,-8.865 3.197,-16.343 9.598,-22.434 6.4,-6.09 14.303,-9.139 23.707,-9.139 9.406,0 17.193,2.931 23.361,8.791 6.168,5.858 9.252,13.222 9.252,22.087 0,8.865 -3.201,16.349 -9.598,22.435 -6.402,6.096 -14.305,9.137 -23.709,9.137 -9.406,0 -17.193,-2.931 -23.359,-8.79 z M 270.61,42.269 c -2.314,2.353 -3.471,5.223 -3.471,8.615 0,3.392 1.154,6.264 3.471,8.616 2.311,2.352 5.203,3.527 8.67,3.527 3.473,0 6.361,-1.178 8.674,-3.527 2.314,-2.354 3.473,-5.225 3.473,-8.616 0,-3.393 -1.156,-6.265 -3.473,-8.615 -2.311,-2.352 -5.201,-3.527 -8.674,-3.527 -3.467,0 -6.36,1.177 -8.67,3.527 z"
           id="path17"
           inkscape:connector-curvature="0"
           style="fill:#005a88" /><path
           d="m 319.178,80.954 0,-60.138 18.502,0 1.041,10.757 c 4.236,-7.94 11.334,-11.913 21.277,-11.913 l -0.346,21.396 -4.395,0 c -5.016,0 -8.789,1.254 -11.334,3.759 -2.543,2.505 -3.855,6.572 -3.936,12.201 l 0,23.938 -20.809,0 z"
           id="path19"
           inkscape:connector-curvature="0"
           style="fill:#005a88" /></g><path
         d="m 95.987,80.954 0,-31.227 c 0,-3.622 -0.811,-6.36 -2.43,-8.21 -1.619,-1.849 -3.816,-2.775 -6.593,-2.775 -2.774,0 -5.03,0.888 -6.765,2.66 -1.733,1.774 -2.641,4.356 -2.717,7.748 l 0,31.804 -20.815,0 0,-80.954 20.816,0 0,27.758 c 4.316,-5.396 10.022,-8.098 17.115,-8.098 6.399,0 11.699,2.122 15.901,6.361 4.2,4.241 6.302,9.908 6.302,16.999 l 0,37.935 -20.814,-0.001 0,0 z"
         id="path21"
         inkscape:connector-curvature="0"
         style="fill:#fbae17" /></g><rect
       x="56.667"
       y="99.375999"
       width="60.136002"
       height="16.771"
       id="rect23"
       style="fill:#fbae17" /></g></svg>